<!DOCTYPE svg PUBLIC "-//W3C//DTD SVG 1.1//EN" "http://www.w3.org/Graphics/SVG/1.1/DTD/svg11.dtd">

<!-- Uploaded to: SVG Repo, www.svgrepo.com, Transformed by: SVG Repo Mixer Tools -->
<svg fill="#3C50E0" height="29px" width="29px" version="1.1" id="Layer_1" xmlns="http://www.w3.org/2000/svg" xmlns:xlink="http://www.w3.org/1999/xlink" viewBox="0 0 512 512" xml:space="preserve" stroke="#3C50E0">

<g id="SVGRepo_bgCarrier" stroke-width="0"/>

<g id="SVGRepo_tracerCarrier" stroke-linecap="round" stroke-linejoin="round"/>

<g id="SVGRepo_iconCarrier"> <g> <g> <path d="M494.886,332.578l-78.365,19.004V226.498h87.915L286.509,0L75.871,226.498h87.089v67.728L89.644,305.6H0.181V512h105.461 v-42.623l73.958-8.296l143.3,40.227l188.919-104.123L494.886,332.578z M75.214,472.789v8.783H30.608V336.028h44.606V472.789z M145.72,196.072v-0.001L286.886,44.276l146.049,151.794h-46.841v162.89l-12.396,3.006v-43.624l-140.079-35.077l-40.23,6.241 v-93.435H145.72z M319.127,468.645l-137.019-38.464l-76.467,8.578V333.91l126.557-19.633L343.27,342.09v19.85l-85.213-20.782 l-7.208,29.561l107.625,26.248l114.553-27.778l3.352,12.787L319.127,468.645z"/> </g> </g> </g>

</svg>