<svg width="29" height="29" viewBox="0 0 29 29" fill="none" xmlns="http://www.w3.org/2000/svg">
<g clip-path="url(#clip0_31_56)">
<path d="M3.18335 17.5606V26.6577C3.18335 26.9257 3.28984 27.1828 3.4794 27.3724C3.66896 27.562 3.92606 27.6685 4.19413 27.6685H24.4098C24.6778 27.6685 24.9349 27.562 25.1245 27.3724C25.3141 27.1828 25.4205 26.9257 25.4205 26.6577V17.5606" stroke="#5364E3" stroke-linecap="round" stroke-linejoin="round"/>
<path d="M16.3236 17.5606V27.6685" stroke="#5364E3" stroke-linecap="round" stroke-linejoin="round"/>
<path d="M3.18335 20.593H16.3235" stroke="#5364E3" stroke-linecap="round" stroke-linejoin="round"/>
<path d="M1.16187 8.46359L4.19421 1.38812H24.4098L27.4422 8.46359H1.16187Z" stroke="#5364E3" stroke-linecap="round" stroke-linejoin="round"/>
<path d="M9.75349 8.46359V10.4852C9.75349 11.5575 9.32752 12.5858 8.56928 13.3441C7.81105 14.1023 6.78266 14.5283 5.71036 14.5283H5.14432C4.07202 14.5283 3.04363 14.1023 2.2854 13.3441C1.52717 12.5858 1.1012 11.5575 1.1012 10.4852V8.46359" stroke="#5364E3" stroke-linecap="round" stroke-linejoin="round"/>
<path d="M18.8506 8.46359V10.4852C18.8506 11.5575 18.4246 12.5858 17.6664 13.3441C16.9081 14.1023 15.8798 14.5283 14.8074 14.5283H13.7967C12.7244 14.5283 11.696 14.1023 10.9377 13.3441C10.1795 12.5858 9.75354 11.5575 9.75354 10.4852V8.46359" stroke="#5364E3" stroke-linecap="round" stroke-linejoin="round"/>
<path d="M27.4421 8.46359V10.4852C27.4421 11.5575 27.0161 12.5858 26.2579 13.3441C25.4997 14.1023 24.4713 14.5283 23.399 14.5283H22.8936C21.8213 14.5283 20.7929 14.1023 20.0347 13.3441C19.2764 12.5858 18.8505 11.5575 18.8505 10.4852V8.46359" stroke="#5364E3" stroke-linecap="round" stroke-linejoin="round"/>
</g>
<defs>
<clipPath id="clip0_31_56">
<rect width="28.3019" height="28.3019" fill="white" transform="translate(0.151001 0.37735)"/>
</clipPath>
</defs>
</svg>
